HIERARCHY
ROOT hip
{
  OFFSET 7.23169 77.0338 121.862
  CHANNELS 6 Xposition Yposition Zposition Zrotation Xrotation Yrotation
  JOINT abdomen
  {
    OFFSET 0 20.6881 -0.73152
    CHANNELS 3 Zrotation Xrotation Yrotation
    JOINT chest
    {
      OFFSET 0 11.7043 -0.48768
      CHANNELS 3 Zrotation Xrotation Yrotation
      JOINT neck
      {
        OFFSET 0 22.1894 -2.19456
        CHANNELS 3 Zrotation Xrotation Yrotation
        JOINT head
        {
          OFFSET -0.24384 7.07133 1.2192
          CHANNELS 3 Zrotation Xrotation Yrotation
          JOINT leftEye
          {
            OFFSET 4.14528 8.04674 8.04672
            CHANNELS 3 Zrotation Xrotation Yrotation
            End Site
            {
              OFFSET 1 0 0
            }
          }
          JOINT rightEye
          {
            OFFSET -3.6576 8.04674 8.04672
            CHANNELS 3 Zrotation Xrotation Yrotation
            End Site
            {
              OFFSET 1 0 0
            }
          }
        }
      }
      JOINT rCollar
      {
        OFFSET -2.68224 19.2634 -4.8768
        CHANNELS 3 Zrotation Xrotation Yrotation
        JOINT rShldr
        {
          OFFSET -8.77824 -1.95073 1.46304
          CHANNELS 3 Zrotation Xrotation Yrotation
          JOINT rForeArm
          {
            OFFSET -28.1742 -1.7115 0.48768
            CHANNELS 3 Zrotation Xrotation Yrotation
            JOINT rHand
            {
              OFFSET -22.5879 0.773209 7.07136
              CHANNELS 3 Zrotation Xrotation Yrotation
              JOINT rThumb1
              {
                OFFSET -1.2192 -0.487915 3.41376
                CHANNELS 3 Zrotation Xrotation Yrotation
                JOINT rThumb2
                {
                  OFFSET -3.37035 -0.52449 3.41376
                  CHANNELS 3 Zrotation Xrotation Yrotation
                  End Site
                  {
                    OFFSET -1.78271 -1.18214 1.43049
                  }
                }
              }
              JOINT rIndex1
              {
                OFFSET -7.75947 0.938293 5.60832
                CHANNELS 3 Zrotation Xrotation Yrotation
                JOINT rIndex2
                {
                  OFFSET -2.54057 -0.884171 1.56538
                  CHANNELS 3 Zrotation Xrotation Yrotation
                  End Site
                  {
                    OFFSET -1.62519 -0.234802 1.16502
                  }
                }
              }
              JOINT rMid1
              {
                OFFSET -8.24714 1.18213 3.41376
                CHANNELS 3 Zrotation Xrotation Yrotation
                JOINT rMid2
                {
                  OFFSET -3.10165 -0.590103 1.0647
                  CHANNELS 3 Zrotation Xrotation Yrotation
                  End Site
                  {
                    OFFSET -2.48547 -0.328903 0.83742
                  }
                }
              }
              JOINT rRing1
              {
                OFFSET -8.82822 0.546677 1.51678
                CHANNELS 3 Zrotation Xrotation Yrotation
                JOINT rRing2
                {
                  OFFSET -2.60934 -0.819778 -0.0198488
                  CHANNELS 3 Zrotation Xrotation Yrotation
                  End Site
                  {
                    OFFSET -2.33842 -0.294052 0.168128
                  }
                }
              }
              JOINT rPinky1
              {
                OFFSET -8.27202 -0.0477905 -0.4584
                CHANNELS 3 Zrotation Xrotation Yrotation
                JOINT rPinky2
                {
                  OFFSET -1.82734 -0.647385 -0.700984
                  CHANNELS 3 Zrotation Xrotation Yrotation
                  End Site
                  {
                    OFFSET -1.69225 -0.51767 -0.607171
                  }
                }
              }
            }
          }
        }
      }
      JOINT lCollar
      {
        OFFSET 2.68224 19.2634 -4.8768
        CHANNELS 3 Zrotation Xrotation Yrotation
        JOINT lShldr
        {
          OFFSET 8.77824 -1.95073 1.46304
          CHANNELS 3 Zrotation Xrotation Yrotation
          JOINT lForeArm
          {
            OFFSET 28.1742 -1.7115 0.48768
            CHANNELS 3 Zrotation Xrotation Yrotation
            JOINT lHand
            {
              OFFSET 22.5879 0.773209 7.07136
              CHANNELS 3 Zrotation Xrotation Yrotation
              JOINT lThumb1
              {
                OFFSET 1.2192 -0.487915 3.41376
                CHANNELS 3 Zrotation Xrotation Yrotation
                JOINT lThumb2
                {
                  OFFSET 3.37035 -0.52449 3.41376
                  CHANNELS 3 Zrotation Xrotation Yrotation
                  End Site
                  {
                    OFFSET 1.78271 -1.18214 1.43049
                  }
                }
              }
              JOINT lIndex1
              {
                OFFSET 7.75947 0.938293 5.60832
                CHANNELS 3 Zrotation Xrotation Yrotation
                JOINT lIndex2
                {
                  OFFSET 2.54057 -0.884171 1.56538
                  CHANNELS 3 Zrotation Xrotation Yrotation
                  End Site
                  {
                    OFFSET 1.62519 -0.234802 1.16502
                  }
                }
              }
              JOINT lMid1
              {
                OFFSET 8.24714 1.18213 3.41376
                CHANNELS 3 Zrotation Xrotation Yrotation
                JOINT lMid2
                {
                  OFFSET 3.10165 -0.590103 1.0647
                  CHANNELS 3 Zrotation Xrotation Yrotation
                  End Site
                  {
                    OFFSET 2.48547 -0.328903 0.83742
                  }
                }
              }
              JOINT lRing1
              {
                OFFSET 8.82822 0.546677 1.51678
                CHANNELS 3 Zrotation Xrotation Yrotation
                JOINT lRing2
                {
                  OFFSET 2.60934 -0.819778 -0.0198488
                  CHANNELS 3 Zrotation Xrotation Yrotation
                  End Site
                  {
                    OFFSET 2.33842 -0.294052 0.168128
                  }
                }
              }
              JOINT lPinky1
              {
                OFFSET 8.27202 -0.0477905 -0.4584
                CHANNELS 3 Zrotation Xrotation Yrotation
                JOINT lPinky2
                {
                  OFFSET 1.82734 -0.647385 -0.700984
                  CHANNELS 3 Zrotation Xrotation Yrotation
                  End Site
                  {
                    OFFSET 1.69225 -0.51767 -0.607171
                  }
                }
              }
            }
          }
        }
      }
    }
  }
  JOINT rButtock
  {
    OFFSET -8.77824 4.35084 1.2192
    CHANNELS 3 Zrotation Xrotation Yrotation
    JOINT rThigh
    {
      OFFSET 0 -1.70687 -2.19456
      CHANNELS 3 Zrotation Xrotation Yrotation
      JOINT rShin
      {
        OFFSET 0 -36.8199 0.73152
        CHANNELS 3 Zrotation Xrotation Yrotation
        JOINT rFoot
        {
          OFFSET 0.73152 -45.1104 -5.12064
          CHANNELS 3 Zrotation Xrotation Yrotation
          End Site
          {
            OFFSET -1.1221 -3.69964 12.103
          }
        }
      }
    }
  }
  JOINT lButtock
  {
    OFFSET 8.77824 4.35084 1.2192
    CHANNELS 3 Zrotation Xrotation Yrotation
    JOINT lThigh
    {
      OFFSET 0 -1.70687 -2.19456
      CHANNELS 3 Zrotation Xrotation Yrotation
      JOINT lShin
      {
        OFFSET 0 -36.8199 0.73152
        CHANNELS 3 Zrotation Xrotation Yrotation
        JOINT lFoot
        {
          OFFSET -0.73152 -45.1104 -5.12064
          CHANNELS 3 Zrotation Xrotation Yrotation
          End Site
          {
            OFFSET 1.1221 -3.69964 12.103
          }
        }
      }
    }
  }
}
MOTION
Frames:	7
Frame Time:	0.00833333
89.8198 80.1779 155.595 23.1586 -11.4422 -98.3844 -13.5656 -20.5619 9.20857 -3.66093 1.66734 3.17255 3.68065 -7.94339 2.90409 -2.85742 -6.60501 4.10277 -0 0 0 -0 0 0 8.41289e-014 -2.05952e-012 -2.62871e-013 45.4576 62.9878 40.4456 -24.987 -21.0652 52.8722 -0.992622 -27.1109 -4.1249 -1.64903e-009 1.58652e-009 7.18423e-010 -2.85858e-009 2.72911e-009 1.21282e-009 -1.64902e-009 1.58653e-009 7.18405e-010 7.73091 5.47488 0.417314 -1.64903e-009 1.58653e-009 7.18418e-010 2.90554 0.965183 0.102902 -1.64902e-009 1.58653e-009 7.18416e-010 10.2786 0.731801 0.0259123 -1.64903e-009 1.58653e-009 7.18421e-010 2.22167 -0.733487 -0.20892 8.40735e-014 -2.05954e-012 -2.63236e-013 -73.3589 -4.72965 11.5504 11.96 -5.41724 -21.5391 3.47578 -45.591 8.25142 -3.85537e-009 -1.77297e-009 7.97798e-010 -6.67215e-009 -3.13627e-009 1.24465e-009 -3.85537e-009 -1.77297e-009 7.97803e-010 -7.73091 5.47488 -0.417314 -3.85537e-009 -1.77297e-009 7.97801e-010 -2.90554 0.965183 -0.102902 -3.85538e-009 -1.77297e-009 7.978e-010 -10.2786 0.731801 -0.0259123 -3.85537e-009 -1.77297e-009 7.97793e-010 -2.22167 -0.733487 0.20892 -2.03217e-016 0 -3.88251e-019 -6.91983 -42.5153 22.2256 -0.335834 36.3958 0.570217 -5.85487 -12.9042 -13.2006 2.03217e-016 0 3.88251e-019 -7.12628 -36.3571 -21.5719 0.0146215 19.9509 -0.455354 1.70736 -6.98317 12.1202 
89.9212 80.2016 155.122 23.0291 -11.4851 -98.2866 -13.495 -20.5307 9.07152 -3.75792 1.65504 3.12858 3.52625 -7.83304 2.86182 -2.63722 -6.17903 4.10872 -0 0 0 -0 0 0 7.47722e-014 -2.69004e-012 -3.19447e-013 50.3877 61.5499 35.8094 -24.4254 -19.9139 50.9846 -0.93322 -26.3301 -3.98823 -1.96897e-009 1.50974e-009 5.71145e-010 -3.40605e-009 2.58523e-009 9.52602e-010 -1.96896e-009 1.50974e-009 5.71126e-010 7.73091 5.47488 0.417314 -1.96897e-009 1.50974e-009 5.71139e-010 2.90554 0.965183 0.102902 -1.96897e-009 1.50974e-009 5.71136e-010 10.2786 0.731801 0.0259123 -1.96897e-009 1.50974e-009 5.71142e-010 2.22167 -0.733487 -0.20892 7.47189e-014 -2.69006e-012 -3.19795e-013 -74.0379 -0.701881 10.0681 12.2665 -5.63734 -22.127 3.20692 -44.2678 7.87395 -4.76189e-009 -2.30395e-009 8.34762e-010 -8.23694e-009 -4.06338e-009 1.27655e-009 -4.76189e-009 -2.30394e-009 8.34768e-010 -7.73091 5.47488 -0.417314 -4.76189e-009 -2.30394e-009 8.34765e-010 -2.90554 0.965183 -0.102902 -4.7619e-009 -2.30394e-009 8.34765e-010 -10.2786 0.731801 -0.0259123 -4.76189e-009 -2.30394e-009 8.34756e-010 -2.22167 -0.733487 0.20892 -2.03217e-016 0 -3.88251e-019 -6.79531 -42.3919 21.8771 -0.334471 36.3141 0.572011 -5.87377 -13.0197 -13.1673 2.03217e-016 0 3.88251e-019 -6.80593 -35.8821 -21.7969 0.00585257 19.3075 -0.462573 1.57896 -6.61442 12.3753 
90.0232 80.2341 154.633 22.9156 -11.4047 -98.2386 -13.2178 -20.5046 8.98157 -3.96323 1.66316 3.09023 3.41597 -7.76715 2.8399 -2.41546 -5.74461 4.13057 -0 0 0 -0 0 0 5.89032e-014 -2.73381e-012 -3.08637e-013 55.0615 59.7818 31.5082 -23.8306 -18.7897 49.0816 -0.907728 -25.9751 -3.92705 -1.68001e-009 1.25408e-009 4.73103e-010 -2.90547e-009 2.14545e-009 7.88567e-010 -1.68e-009 1.25409e-009 4.73082e-010 7.73091 5.47488 0.417314 -1.68001e-009 1.25409e-009 4.73095e-010 2.90554 0.965183 0.102902 -1.68001e-009 1.25409e-009 4.73093e-010 10.2786 0.731801 0.0259123 -1.68001e-009 1.25409e-009 4.731e-010 2.22167 -0.733487 -0.20892 5.88806e-014 -2.73383e-012 -3.08925e-013 -74.4453 3.30753 8.64291 12.6322 -5.90387 -22.838 2.92885 -42.7757 7.4703 -4.31156e-009 -2.13113e-009 5.29283e-010 -7.45284e-009 -3.75475e-009 7.65104e-010 -4.31157e-009 -2.13112e-009 5.29288e-010 -7.73091 5.47488 -0.417314 -4.31156e-009 -2.13112e-009 5.29282e-010 -2.90554 0.965183 -0.102902 -4.31157e-009 -2.13112e-009 5.29284e-010 -10.2786 0.731801 -0.0259123 -4.31156e-009 -2.13112e-009 5.29272e-010 -2.22167 -0.733487 0.20892 -2.03217e-016 0 -3.88251e-019 -6.39581 -42.3031 21.784 -0.334601 36.3242 0.573208 -5.87673 -13.0611 -13.1393 2.03217e-016 0 3.88251e-019 -6.33215 -35.4461 -21.9483 -0.000842334 18.7464 -0.469336 1.46362 -6.28373 12.6302 
90.1251 80.2292 154.128 22.8102 -11.2275 -98.2337 -12.7758 -20.4764 8.93574 -4.25097 1.68428 3.05812 3.32758 -7.73931 2.82975 -2.18651 -5.29721 4.16204 -0 0 0 -0 0 0 3.57689e-014 -2.44196e-012 -2.56926e-013 59.4267 57.7064 27.5715 -23.1956 -17.6702 47.1413 -0.903297 -25.9191 -3.91722 -1.02879e-009 8.24204e-010 3.55222e-010 -1.78006e-009 1.41018e-009 5.96727e-010 -1.02878e-009 8.24208e-010 3.55198e-010 7.73091 5.47488 0.417314 -1.02879e-009 8.24207e-010 3.55213e-010 2.90554 0.965183 0.102902 -1.02878e-009 8.24209e-010 3.55212e-010 10.2786 0.731801 0.0259123 -1.02879e-009 8.24205e-010 3.55219e-010 2.22167 -0.733487 -0.20892 3.5796e-014 -2.44198e-012 -2.57122e-013 -74.6053 7.33172 7.24165 13.045 -6.2079 -23.6562 2.64577 -41.0849 7.04065 -3.06086e-009 -1.56146e-009 1.8479e-011 -5.28339e-009 -2.7478e-009 -7.27308e-011 -3.06087e-009 -1.56146e-009 1.84822e-011 -7.73091 5.47488 -0.417314 -3.06086e-009 -1.56146e-009 1.84735e-011 -2.90554 0.965183 -0.102902 -3.06087e-009 -1.56146e-009 1.84766e-011 -10.2786 0.731801 -0.0259123 -3.06086e-009 -1.56146e-009 1.84617e-011 -2.22167 -0.733487 0.20892 -2.03217e-016 0 -3.88251e-019 -5.77574 -42.2467 21.872 -0.335875 36.4006 0.573667 -5.86665 -13.0142 -13.1338 2.03217e-016 0 3.88251e-019 -5.73075 -35.0246 -22.0518 -0.00738527 18.2286 -0.47608 1.35457 -5.96996 12.8974 
90.2192 80.2257 153.613 22.7114 -10.9921 -98.2659 -12.2314 -20.455 8.90629 -4.56412 1.71149 3.02618 3.26847 -7.71615 2.84035 -1.99413 -4.86161 4.21923 -0 0 0 -0 0 0 1.22385e-014 -1.88529e-012 -1.80456e-013 63.3503 55.3482 24.0553 -22.5183 -16.5576 45.1898 -0.90863 -26.003 -3.93133 -3.21972e-010 3.36862e-010 2.39647e-010 -5.59528e-010 5.76998e-010 4.09852e-010 -3.21963e-010 3.36866e-010 2.39622e-010 7.73091 5.47488 0.417314 -3.21969e-010 3.36862e-010 2.39637e-010 2.90554 0.965183 0.102902 -3.21967e-010 3.36865e-010 2.39637e-010 10.2786 0.731801 0.0259123 -3.21973e-010 3.36861e-010 2.39646e-010 2.22167 -0.733487 -0.20892 1.23123e-014 -1.8853e-012 -1.8056e-013 -74.536 11.2554 5.90356 13.501 -6.55523 -24.5645 2.34736 -39.1536 6.57491 -1.59165e-009 -8.83382e-010 -4.00839e-010 -2.73823e-009 -1.55035e-009 -7.45452e-010 -1.59166e-009 -8.83377e-010 -4.00838e-010 -7.73091 5.47488 -0.417314 -1.59166e-009 -8.83379e-010 -4.0085e-010 -2.90554 0.965183 -0.102902 -1.59166e-009 -8.83378e-010 -4.00845e-010 -10.2786 0.731801 -0.0259123 -1.59165e-009 -8.83379e-010 -4.00862e-010 -2.22167 -0.733487 0.20892 -2.03217e-016 0 -3.88251e-019 -5.01974 -42.1927 22.0945 -0.337422 36.4983 0.573661 -5.85486 -12.929 -13.1522 2.03217e-016 0 3.88251e-019 -5.07771 -34.6719 -22.1316 -0.0120266 17.8556 -0.479941 1.2762 -5.71759 13.1924 
90.3042 80.225 153.089 22.6173 -10.7361 -98.3304 -11.6468 -20.4493 8.8655 -4.84563 1.73786 2.98837 3.24601 -7.66432 2.88066 -1.88244 -4.46263 4.31821 -0 0 0 -0 0 0 -4.81852e-015 -1.13455e-012 -9.53669e-014 66.7391 52.738 20.9785 -21.8002 -15.4601 43.2528 -0.912935 -26.0675 -3.94228 1.33763e-010 -9.11801e-011 1.48526e-010 2.26417e-010 -1.56531e-010 2.6071e-010 1.33772e-010 -9.1175e-011 1.485e-010 7.73091 5.47488 0.417314 1.33766e-010 -9.11807e-011 1.48516e-010 2.90554 0.965183 0.102902 1.33768e-010 -9.11772e-011 1.48516e-010 10.2786 0.731801 0.0259123 1.33761e-010 -9.11805e-011 1.48526e-010 2.22167 -0.733487 -0.20892 -4.72335e-015 -1.13457e-012 -9.54166e-014 -74.2786 14.9622 4.67069 13.9961 -6.95134 -25.5463 2.0278 -36.9398 6.06599 -4.85811e-010 -3.85318e-010 -4.31862e-010 -8.2698e-010 -6.70226e-010 -7.61558e-010 -4.85819e-010 -3.85313e-010 -4.31862e-010 -7.73091 5.47488 -0.417314 -4.85814e-010 -3.85316e-010 -4.31878e-010 -2.90554 0.965183 -0.102902 -4.85814e-010 -3.85314e-010 -4.3187e-010 -10.2786 0.731801 -0.0259123 -4.85807e-010 -3.85315e-010 -4.31888e-010 -2.22167 -0.733487 0.20892 -2.03217e-016 0 -3.88251e-019 -4.21245 -42.1108 22.4051 -0.33837 36.5721 0.573464 -5.85266 -12.8556 -13.1958 2.03217e-016 0 3.88251e-019 -4.44854 -34.4422 -22.2113 -0.0129404 17.7291 -0.478061 1.25367 -5.57089 13.5307 
90.3797 80.2284 152.563 22.5236 -10.4472 -98.4409 -10.997 -20.4559 8.83184 -5.09264 1.765 2.94879 3.24908 -7.58569 2.94898 -1.84992 -4.10268 4.45857 -0 0 0 -0 0 0 -9.22081e-015 -2.79192e-014 1.13917e-014 69.6684 49.8422 18.2833 -21.0503 -14.3945 41.308 -0.918205 -26.1358 -3.95422 2.35437e-010 -4.66471e-010 8.7919e-011 3.99019e-010 -8.02837e-010 1.57911e-010 2.35445e-010 -4.66466e-010 8.78973e-011 7.73091 5.47488 0.417314 2.3544e-010 -4.66471e-010 8.7912e-011 2.90554 0.965183 0.102902 2.35442e-010 -4.66468e-010 8.79124e-011 10.2786 0.731801 0.0259123 2.35435e-010 -4.6647e-010 8.79216e-011 2.22167 -0.733487 -0.20892 -9.14242e-015 -2.79383e-014 1.13451e-014 -73.8659 18.4597 3.54276 14.5237 -7.38757 -26.6088 1.66942 -34.204 5.472 1.60596e-010 -1.16476e-010 2.25541e-010 2.79666e-010 -1.9398e-010 3.92629e-010 1.60588e-010 -1.16471e-010 2.25542e-010 -7.73091 5.47488 -0.417314 1.60592e-010 -1.16476e-010 2.25522e-010 -2.90554 0.965183 -0.102902 1.60593e-010 -1.16472e-010 2.25534e-010 -10.2786 0.731801 -0.0259123 1.60599e-010 -1.16473e-010 2.25519e-010 -2.22167 -0.733487 0.20892 -2.03217e-016 0 -3.88251e-019 -3.32108 -41.9961 22.8476 -0.338813 36.6347 0.573377 -5.86516 -12.8048 -13.2742 2.03217e-016 0 3.88251e-019 -3.85167 -34.3938 -22.288 -0.0082502 17.9774 -0.467608 1.31768 -5.58491 13.9257 
